<svg xmlns="http://www.w3.org/2000/svg" xmlns:xlink="http://www.w3.org/1999/xlink" width="1920" height="14477" viewBox="0 0 1920 14477">
  <defs>
    <style>
      .cls-1 {
        clip-path: url(#clip-HOME_9);
      }

      .cls-2 {
        font-size: 50px;
        font-family: NanumMyeongjo;
      }

      .cls-3 {
        fill: red;
      }

      .cls-4, .cls-5 {
        fill: #f36c36;
      }

      .cls-5, .cls-6 {
        font-family: YuGothicUI-Regular, Yu Gothic UI;
      }

      .cls-7 {
        fill: #fff;
      }
    </style>
    <clipPath id="clip-HOME_9">
      <rect width="1920" height="14477"/>
    </clipPath>
  </defs>
  <g id="HOME_9" data-name="HOME – 9" class="cls-1">
    <rect class="cls-7" width="1920" height="14477"/>
    <text id="기를_위하여_죽는_자도_없도다_우리가_살아도_주를_위하여_살고_죽어도_주를_위하여_죽나니_그러므로_사나_죽으나_우리가_주의_것이로라_이를_그러나_사이버스페이스는_기존_건축이_인식하고_지각하는_방식을_변경시킬_뿐만_아니라_건축_개념에_대한_급진적인_변형을_암시한다._즉_이_공간에서의_변조_행위는_물리적인_신체적_파악이_아니라_컴퓨터_상의_인터페이스를_통한_상징적_상호_작용_에_의해이루어진다._또한_도시_광장_도서솨느_쇼핑센터_교회_등과_같은_기존의_" data-name="기를 위하여 죽는 자도 없도다 우리가 살아도 주를 위하여 살고 죽어도 주를 위하여 죽나니 그러므로 사나 죽으나 우리가 주의 것이로라 이를 그러나 사이버스페이스는 기존 건축이 인식하고 지각하는 방식을 변경시킬 뿐만 아니라 건축 개념에 대한 급진적인 변형을 암시한다. 즉 이 공간에서의 변조 행위는 물리적인 신체적 파악이 아니라 컴퓨터 상의 인터페이스를 통한 &apos;상징적 상호 작용&apos;에 의해이루어진다. 또한 도시, 광장, 도서솨느 쇼핑센터, 교회 등과 같은 기존의 " class="cls-2" transform="translate(162 77)"><tspan x="0" y="46">기를 위하여 죽는 자도 없도다</tspan><tspan class="cls-3" y="46"> </tspan><tspan class="cls-4" y="46">우리가 살아도 주를 위하여 살고 죽어도 주를 </tspan><tspan class="cls-4" x="0" y="111">위하여 죽나니 그러므로 사나 죽으나 우리가 주의 것이로라 이를</tspan><tspan class="cls-3" y="111"> </tspan><tspan y="111">그러나 사</tspan><tspan x="0" y="176">이버스페이스는 기존 건축이 인식하고 지각하는 방식을 변경시킬 뿐만 아니</tspan><tspan x="0" y="241">라 건축 개념에 대한 급진적인 변형을 암시한다. 즉 이 공간에서의 변조 행</tspan><tspan x="0" y="306">위는 </tspan><tspan class="cls-4" y="306">물리적인 신체적 파악이 아니라 컴퓨터 상의 인터페이스를 통한 &apos;상징</tspan><tspan class="cls-4" x="0" y="371">적 상호 작용&apos;에 의해이루어진다.</tspan><tspan y="371" xml:space="preserve"> 또한 도시, 광장, 도서솨느 쇼핑센터, 교회 </tspan><tspan x="0" y="436">등과 같은 기존의 건축적 공간들은 무한대로 확장되며 지적인 공동체를 서</tspan><tspan x="0" y="501">로의 일상적인 관계로 엮는 &apos;연결 구조&apos;로 과격하게 변경된다, 사이버스페이</tspan><tspan x="0" y="566">스에서 이러한 연결은, 필연적으로 한 공간에 단일한 건물들이 각각 존재하</tspan><tspan x="0" y="631">면서 도로와 교통 순환체계에 의해 점에서 점으로 이어지는 기존의 물리적 </tspan><tspan x="0" y="696">도시 공간과는 양상을 완전히 달리한다. &quot;</tspan><tspan class="cls-4" y="696">네 능력은 뛰어난 것에 있는 게 아</tspan><tspan class="cls-4" x="0" y="761">니다. 쉬지 않고 가는 데 있어</tspan><tspan y="761">&quot;라고 격려해주면서도, 끝에는&quot;</tspan><tspan class="cls-4" y="761">그러니 얼마나 </tspan><tspan class="cls-4" x="0" y="826">힘이 들겠어</tspan><tspan y="826">&quot;라며 알아주는 마음. 우리 서로에게 이것이 필요한 시대가 아닐</tspan><tspan x="0" y="891">까. 우 </tspan><tspan class="cls-4" y="891">천재교육 시리즈</tspan><tspan y="891">를 정해서 공부하면 무난하다. 천재교육에서 나온 중 </tspan><tspan x="0" y="956">1 수학 문제집을 가지고 방학 때 꾸준히 공부하면 충분히 좋은 결과를 얻을 </tspan><tspan x="0" y="1021">수 있다. 천재교육은 수학 문제집 전문 회사이다. 천재교육의 수학 문제집은 </tspan><tspan x="0" y="1086">난이도 별로 다양하게 나와 있기에 누구든지 자신의 실력에 맞는 문제집을 </tspan><tspan x="0" y="1151">선택하여 공부할 수 있다. </tspan><tspan class="cls-4" y="1151">영어는 맨투맨 중학 영어 시리즈</tspan><tspan y="1151">를 가지고 공부하</tspan><tspan x="0" y="1216">면 무난하다. 맨투맨 영어 문제집 역시 영어 전문 회사에서 만든 것이기에 </tspan><tspan x="0" y="1281">매우 체계적이며 각 학년별로 짜임새 있게 만들어져 있다. 맨투맨은 특히 혼</tspan><tspan x="0" y="1346">자 공부할 때 매우 효과적이다. 설명이 매우 상세하게 나와 있어서 스스로 </tspan><tspan x="0" y="1411">공부하는 학생들이 큰 도움을 받을 수 있기 때문이다. 이 두 회사의 문제집</tspan><tspan x="0" y="1476">은 큰 서점이 아닌 동네 서점에서도 손쉽게 구할 수 있다는 장점도 가지고 </tspan><tspan x="0" y="1541">있다. 예를 들어 1시간의 자유 시간 내내 현란한 비디오 게임을 하고 나서 </tspan><tspan x="0" y="1606">바로 공부를 한다고 생각해 보자. 휴식 시간을 통해 눈도 쉬고 몸도 쉬어야 </tspan><tspan x="0" y="1671">하는데 오히려 지나친 오락으로 인해 눈이 쉬지도 못 한 채 더 혹사당한 셈</tspan><tspan x="0" y="1736">이다. 이런 상태로 다시 집주앟여 공부한다는 것은 무리다. 따라서 중간중간 </tspan><tspan x="0" y="1801">쉬는 시간을 본인이 어떻게 잘 보내야 할지를 좀더 생각할 필요가 있다. </tspan><tspan class="cls-4" y="1801">나</tspan><tspan class="cls-4" x="0" y="1866">는 쉬는 시간에 주로 동네를 많이 걸어다녔다. 걸으면서 좋아하는 음악을 들</tspan><tspan class="cls-4" x="0" y="1931">었다. 그리고 대략 10분에서 15분 정도 걸었다.</tspan><tspan y="1931" xml:space="preserve"> 짧은 시간이었지만 바깥 공</tspan><tspan x="0" y="1996">기를 느끼면서 기분전환하는 데 아주 좋았다. 너무 피곤할 때는 자유 시간에 </tspan><tspan x="0" y="2061">10분 정도 샤워하고 30분 정도 잠을 자기도 했다. 텔레비전 시청과 오락은 </tspan><tspan x="0" y="2126">가급적 짧은 자유 시간일 때는 삼가고 좀 여유 있게 놀 수 있는 시간에 주로 </tspan><tspan x="0" y="2191">했다. 반복된 표현에서 일종의 추상이 이루어지는 이 프로세스에 의해 우리</tspan><tspan x="0" y="2256">는 제의에서 예술로 옮겨가는 정서의 궤도를 읽을 수 있다. </tspan><tspan class="cls-4" y="2256">놀이적 무극(</tspan><tspan class="cls-5" y="2256">舞</tspan><tspan class="cls-5" x="0" y="2321">劇</tspan><tspan class="cls-4" y="2321">)은 굿거리나 탈춤•민속극 속에 주술적•모의적 연희 형태로 잔존해 있</tspan><tspan class="cls-4" x="0" y="2386">다. 청원굿에서 그런 모의 양식은 풍부하게 연출되며 탈춤•민속극에서 의</tspan><tspan class="cls-4" x="0" y="2451">도적으로 극화되어 미얄 할매의 죽음과 굿, 아기 탄색, 신장수 거리, 사랑 싸</tspan><tspan class="cls-4" x="0" y="2516">움의 양식이 주술 형식에서 탈락해 버리고 행위만 남아 난 연희•연극적 결</tspan><tspan class="cls-4" x="0" y="2581">과인 것이다.</tspan><tspan y="2581" xml:space="preserve"> 주술의 목적이 반드시 이루어지지 않는 경우에도 행위만은 살</tspan><tspan x="0" y="2646">아남는 이유 가운데 하나는 그 행위 자체만으로도 의미가 발견되기 때문이</tspan><tspan x="0" y="2711">다. 생동감이 넘치는 연희•연극의 조직은 함깨 공감하고 전율하는 집단을 </tspan><tspan x="0" y="2776">희구한다. 사회 생활이라는 의태는 그런 놀이와 드라마에서 세련되어 나오</tspan><tspan x="0" y="2841">며 그것이야말로 전통 연극과 연희 전승이 사회에 기능하는 뚜렷한 작용인 </tspan><tspan x="0" y="2906">것이다. </tspan><tspan class="cls-4" y="2906">사람들은 가까운 사람을 모방하고, 가까운 사람부터 모방하게 만든</tspan><tspan class="cls-4" x="0" y="2971">다. 구경군으로서의 굿 공동체 관중은 모든 방법으로 &apos;초월적&apos;으로 드라마적 </tspan><tspan class="cls-4" x="0" y="3036">허구의 원리를 인정하려고 하는 것이며 공감을 낳을고 준비하고 있다. 그들</tspan><tspan class="cls-4" x="0" y="3101">은 연희•연극적 독자적인 상징, 곧 예식의 진행 절차나 징표를읽어 내는데 </tspan><tspan class="cls-4" x="0" y="3166">숙달되어 있다. 그것은 같은 리듬의 암시이며 감동을 위한 준비 작업으로서 </tspan><tspan class="cls-4" x="0" y="3231">굿 공동체의 관중들은 이미 그것을 수용 용납하고 있는 것이다.</tspan><tspan y="3231" xml:space="preserve"> 굿의 연희•</tspan><tspan x="0" y="3296">연극적 행위는 리듬과 감동의 암시를 가장 받기 쉬운 상태, 내맡겨진 상태로 </tspan><tspan x="0" y="3361">굿 공동체 구성원들을 몰아 넣기 때문에 정신적 전파가 수월하다. 굿 구경의 </tspan><tspan x="0" y="3426">자리, 관극의 자리에서는 누구나 의식적으로 이런 태도를 취하므로 굿판의 </tspan><tspan x="0" y="3491">연기가 배분하는 리듬의 효과나 희비애락 등 감정의 동력도 동시에 모든 굿 </tspan><tspan x="0" y="3556">공동체 구성원들에게 파도친다. 훈장의 트릭스터적 풍모나, 바보스런 짓거</tspan><tspan x="0" y="3621" xml:space="preserve">리로 일관된 봉산 탈춤 제 6  파장의 샌님, 서방님, 도련님, 양반들의 행적은 </tspan><tspan x="0" y="3686">신성의 표시였던 광대짓의 원초적 행위가 차츰 풍자와 해학의 소극화(</tspan><tspan class="cls-6" y="3686">笑劇</tspan><tspan class="cls-6" x="0" y="3751">化</tspan><tspan y="3751">) 내지는 희극으로 정릭 정착되어 갔음을 시사한다. </tspan><tspan class="cls-4" y="3751">거리굿의 훈장 장면은 </tspan><tspan class="cls-4" x="0" y="3816">에로티즘과 풍요 제의의 원초적 관념의 잔재로 받아들일 수 도 있다. 결과적</tspan><tspan class="cls-4" x="0" y="3881">으로 권위의 추락, 질서 제도의 부정 등으로 형가되어 민중 의식으로 간주될 </tspan><tspan class="cls-4" x="0" y="3946">수 있는 훈장 양반 파계승의 자기 희화화는 신성의 반사이자 그 이지러짐이</tspan><tspan class="cls-4" x="0" y="4011">다. 신성이 일상적인 것과 돋보이고 평범한 일반적 평균치를 넘어서는 것은 </tspan><tspan class="cls-4" x="0" y="4076">당연하다. 신성은 범접률 꺼리기 때문에 경의(dass Numinose)의 후광을 입</tspan><tspan class="cls-4" x="0" y="4141">는다. 무당이 원래는 불구였을 가능성을 시사한 가설들도 있지만 실제로 신</tspan><tspan class="cls-4" x="0" y="4206">체적 불구가 강신(</tspan><tspan class="cls-5" y="4206">降神</tspan><tspan class="cls-4" y="4206">)의 모티브가 되어 곱추, 문둥이, 난쟁이, 언챙이, 절</tspan><tspan class="cls-4" x="0" y="4271">름발이 등이 두려움의 대상이 되어 무의(</tspan><tspan class="cls-5" y="4271">巫儀</tspan><tspan class="cls-4" y="4271">)와 관련된 Yoruba Egungun</tspan><tspan class="cls-4" x="0" y="4336">의 굿거리에서는 6개의 가면이 그 불구자를 나타낸다. </tspan><tspan y="4336">민족학적 보고에 의</tspan><tspan x="0" y="4401">하면 불구의 인간만이 아니라 어리석음•추태()•광기•귀머거리•매독•</tspan><tspan x="0" y="4466">감기•눈병 같은 부도덕한 부정적 관념이 유형화될 수도 있다고 한다. 유형</tspan><tspan x="0" y="4531">화에 있어서 동물, 즉 사나운 짐승이나 가축 혹은 새 식물 등의 가면과 상징 </tspan><tspan x="0" y="4596">가면 같은 것보다 인물 가면의 발전은 민속 가면극의 인물 유형화의 극적 발</tspan><tspan x="0" y="4661">전을 본격화시킨다. 그것은 이미 원초적 형식에서는 탈피한 것이다. 책상 서</tspan><tspan x="0" y="4726">랍을 끝까지 열어 노란색 봉투를 꺼냈다. 그동안 받은 편지, 일기장, 천사의 </tspan><tspan x="0" y="4791">장난감을 넣어 두는 봉투. 한수가 준 편지를 넣으려다가 봉투에 들어 있는 </tspan><tspan x="0" y="4856">것을 전부 꺼내 책상 위에 늘어놓았다. </tspan><tspan class="cls-4" y="4856">편지는 이상하다. 봉투를 열고 편지</tspan><tspan class="cls-4" x="0" y="4921">지를 펼치면 내가 전혀 몰랐던 마음이 펼쳐진다. 말은 사라지고 기억은 희미</tspan><tspan class="cls-4" x="0" y="4986">해져도 글자는 남는다. 비밀스러운 마음이 선명하게 남아 버린다. 내게 그걸 </tspan><tspan class="cls-4" x="0" y="5051">주면 나는 가진다. 편지를 쓸 때의 그 마음은 나는 확실히 가진다.</tspan><tspan y="5051" xml:space="preserve"> 내게 &apos;모욕</tspan><tspan x="0" y="5116">감&apos;이란 단어를 알려준 편지를 집어 들었다. 대부분의 한국인은 칼슘이 부족</tspan><tspan x="0" y="5181">하다. 과체중이거나 비만인 사람에게는 모자라는 영양소가 거의 없지만 그</tspan><tspan x="0" y="5246">래도 칼슘과 섬유질은 부족한 사람들이 많다. 칼슘은 2000년에 개정된 한국</tspan><tspan x="0" y="5311">인의 영양 권장량에서 하루 700mg 이상 섭취할 것을 권장하고 있지만, 세계</tspan><tspan x="0" y="5376">쩍인 추세는 </tspan><tspan class="cls-4" y="5376">1일 1,000mg 이상이고, 특히 폐경기 여성에게는 1,500mg까지 </tspan><tspan class="cls-4" x="0" y="5441">권장하고 있다.</tspan><tspan y="5441" xml:space="preserve"> 2001년에 실시된 국민건강영양조사에 따르면 한국인의 평</tspan><tspan x="0" y="5506">균 칼슘 섭취량은 497mg으로 남녀노소 모두 거의 비슷한 수치를 보인다. 청</tspan><tspan x="0" y="5571">중을 어떤 방향으로 이끌어 갈 것인가? 당신은 청중을 어떤 방향으로든 이</tspan><tspan x="0" y="5636">끌 수 있다. 기억하라, 그들은 당신의 이야기를 듣기 위해 그곳에 있는 것이</tspan><tspan x="0" y="5701">다. 스스로에게 &quot;청중이 나에게 원하는 것은 무엇인가?&quot;라고 묻지 마라. 그</tspan><tspan x="0" y="5766">보다는 &quot;</tspan><tspan class="cls-4" y="5766">내가 청중에게 원하는 것은 무엇인가?</tspan><tspan y="5766">&quot;에 집중해야 한다. 당신은 청</tspan><tspan x="0" y="5831">중을 즐겁게 해 주려 하는가, 교육하려 하는가, 설득하려 하는가, 아니면 그</tspan><tspan x="0" y="5896">들이 당신을 신뢰하도록 만들고 싶은가. 그렇다면 그 이유는 무엇인가. 사실 </tspan><tspan x="0" y="5961">제인뿐만 아니라 일반적으로 사람들은 쉽게 공포심에 사로잡힌다. </tspan><tspan class="cls-4" y="5961">청중이 </tspan><tspan class="cls-4" x="0" y="6026">나에게 원하는 것에 관심을 기울이는 것은 부정적인 접근 방식이다.</tspan><tspan y="6026" xml:space="preserve"> 이런 접</tspan><tspan x="0" y="6091">근 방식은 매우 파괴적이며 시간 소모적이다. 비록 제인이 자신의 목표를 정</tspan><tspan x="0" y="6156">확하게 설정하고 청중을 어떤 방향으로 이끌어 가야 할지 안다고 하더라도, </tspan><tspan x="0" y="6221">이 방식을 유지하는 그녀는 결국 프리젠테이션에서 실패한 것이 분명했다. </tspan><tspan x="0" y="6286">나는 제인과 함께 목표 설정 작업에 착수했다. 먼저 제인에게 이번 프리젠테</tspan><tspan x="0" y="6351">이션을 하는 이유가 무엇인지 물었다. 그녀는 즉시 그녀가 원해서 하게 된 </tspan><tspan x="0" y="6416" xml:space="preserve">것은 아니라고 대답했다.  처음 직장에 입사했을 때 여러분은 유혹하는 또 </tspan><tspan x="0" y="6481">하나의 보험 상품이 있다. 바로 &apos;연금보험&apos;이다. </tspan><tspan class="cls-4" y="6481">연금보험도 종신보험과 마찬</tspan><tspan class="cls-4" x="0" y="6546">가지로 빨리 가입할수록 유리하다.</tspan><tspan y="6546" xml:space="preserve"> 하지만 연금보험도 종신보험과 마찬가지</tspan><tspan x="0" y="6611">로 빨리 가입할수록 유리하다. 하지만 연금보험도 종신보험과 마찬가지로 </tspan><tspan x="0" y="6676">빨리 가입할수록 유리하다. 하지만 연금보험에는 치명적인 약점이 있다. 여</tspan><tspan x="0" y="6741">러분이 20년 또는 30년 후 받게 되는 연금이 미리 연금보험 가입 시점에 확</tspan><tspan x="0" y="6806">정된다는 점이다. 현가에 대해서 미리 배웠지만 지금 200만 원과 30년 후 </tspan><tspan x="0" y="6871">200만 원은 큰 차이가 있을 것이다. 또 20~30년이란 시간 속에 상황이 급박</tspan><tspan x="0" y="6936">하게 바뀌는 위험도 가정해야 한다. 자칫 여러분의 최대 무기인 시간이 위험</tspan><tspan x="0" y="7001">을 상쇄하는 것이 아니라 증폭시키는 역할을 하게 된다. 정한 사망보험금은 </tspan><tspan x="0" y="7066">30~40년 후에도 변동이 없다. 만약 사망보험금 1억을 36년 후에 생존한 아</tspan><tspan x="0" y="7131">내가 받았다고 가정해보자. 아마도 그 시점에서 1억의 가치는 물가상승률 </tspan><tspan x="0" y="7196">4%를 적용할 때 약 2500만 원 정도로 감소한다. 사태가 이쯤에 달하자 좀 </tspan><tspan x="0" y="7261">영리한 재테크 선수들은 간단한 </tspan><tspan class="cls-4" y="7261">보장성 보험 1개 정도를 들 뿐 아예 보험상</tspan><tspan class="cls-4" x="0" y="7326">품 자체를 멀리하기 시작했다.</tspan><tspan y="7326" xml:space="preserve"> 보험업자들은 분명 이 위기를 극복할 획기적</tspan><tspan x="0" y="7391">인 히트상품이 필요했다. 보험업자들은 분명 이 위기를 극복할 획기적인 필</tspan><tspan x="0" y="7456">요했다. &apos;변액&apos;이라는 단어가 붙은 보험은 바로 이런 한계를 극복하기 위해 </tspan><tspan x="0" y="7521">등장한 보험상품이다. 컨셉트는 명확하다. 먼저 </tspan><tspan class="cls-4" y="7521">변액종신보험</tspan><tspan y="7521">은 보험료 일</tspan><tspan x="0" y="7586">부를 적립식펀드에 투자해 헌드 실적에 따라 배당을 해준다. 실적에 따라 사</tspan><tspan x="0" y="7651">망보험금과 적립금이 변동되므로 투자 실적이 좋아지면 발생한 수익금을 사</tspan><tspan x="0" y="7716">망보험금에 얹어 돌려주게 된다. 물론 원금보장이 되지 않는다. 따라서 운용</tspan><tspan x="0" y="7781">실적이 0%이거나 마이너스면 계약시 정했던 최저사망보험금만 받게 된다. </tspan><tspan x="0" y="7846">변액보험은 아니지만 사람들이 많이 혼동하는 </tspan><tspan class="cls-4" y="7846">유니버셜종신</tspan><tspan y="7846">. 먼저 정책 자</tspan><tspan x="0" y="7911">체를 이해하고 다음으로는 파급효과에 집중하는 식으로 </tspan><tspan class="cls-4" y="7911">사고의 폭</tspan><tspan y="7911">을 넓혀가</tspan><tspan x="0" y="7976">자. 만약 금리를 인상한다면 짧게는 대출금리가 높아져 은행대출이 많은 경</tspan><tspan x="0" y="8041">우 상당한 부담으로 다가올 것이다. 다음으론 </tspan><tspan class="cls-4" y="8041">왜</tspan><tspan y="8041" xml:space="preserve"> 금리를 올렸는지 생각해야 </tspan><tspan x="0" y="8106">한다. 경기가 과열돼 이를 안정시키기 위해 금리를 올렸다면 향후 6개월~1</tspan><tspan x="0" y="8171">년 정도 후에는 과열경기가 진정된다고 전망할 수 있다. 그럼 </tspan><tspan class="cls-4" y="8171">경기를 선반영</tspan><tspan class="cls-4" x="0" y="8236">하는 주식시장은 지금부터 위축될 수 있다고 해석하는 게 정석</tspan><tspan y="8236">이다. 부동산</tspan><tspan x="0" y="8301">투자에 대한 규제가 강해졌다고 해서 무조건 부동산투자의 매력이 없어지고 </tspan><tspan x="0" y="8366">상대적으로 시중자금이 중시로 유입된다고 단정지을 수 없다. 이런 연습을 </tspan><tspan x="0" y="8431">마치면 이제 본격적인 경제신문 행간읽기를 시작해야 한다. 지금까지 주로 </tspan><tspan class="cls-4" x="0" y="8496">&apos;정보얻기&apos;에 주력</tspan><tspan y="8496">했다면 이제는 스스로 정보를 분석해가는 과정이다. </tspan><tspan class="cls-4" y="8496">&apos;타이</tspan><tspan class="cls-4" x="0" y="8561">밍&apos;을 잡아내는 과정</tspan><tspan y="8561">이라고 해도 좋다. 수출비중이 매출액의 90%를 차지하</tspan><tspan x="0" y="8626">는 A기업 주식을 대량 매수한 사람이 있다면 </tspan><tspan class="cls-4" y="8626">주식투자에 있어 성공보다는 </tspan><tspan class="cls-4" x="0" y="8691">실패한 확률</tspan><tspan y="8691">이 높다. 기업실적과 관련된 기사(정보)는 발표시점에 벌써 주가</tspan><tspan x="0" y="8756">가 반영되어 있기 때문이다. 그러나 이 기사와 함께 &quot;최근 달라가 다시 귀해</tspan><tspan x="0" y="8821">지면서 원/달러 환율이 점점 상승하고 있다(</tspan><tspan class="cls-4" y="8821">원화값이 절하되고 있다.</tspan><tspan y="8821">)&quot;는 기</tspan><tspan x="0" y="8886">사가 또 다른 면에 함께 나왔다고 하자. 자, 이 경우 LG카드채권에 투자하는</tspan><tspan x="0" y="8951">게 과연 위험이었을까. 정말로 두려움을 낄만한, 투기에 가까운 무모한 투자</tspan><tspan x="0" y="9016">였을까. 당시 투자고수들은 &quot;</tspan><tspan class="cls-4" y="9016">정부가 과연 LG카드를 망학 할까. 정대 그렇게</tspan><tspan class="cls-4" x="0" y="9081">는 못할 것이다. 설사 망하더라도 개인이 투자한 채권에 대해서는 원금은 보</tspan><tspan class="cls-4" x="0" y="9146">장해줄 것이다</tspan><tspan y="9146">&quot;라는 자신감으로 채권을 사들였닥 한다. 물론 &apos;도덕적 해이&apos; </tspan><tspan x="0" y="9211">문제가 있을 수 있겠지만 어쨌든 위험의 실체를 자기 나름대로 재빠르게 분</tspan><tspan x="0" y="9276">석했다고 볼 수 있다. 그때 갑자기 계곡 쪽에서 음악이 들려온다. 그 소리는 </tspan><tspan x="0" y="9341">점점 가깝게 들렸는데 매혹하듯 몸을 떨게 하는 소리였다. 지금 두 사람의 </tspan><tspan x="0" y="9406">악사는 우리집 골목을 들어서고 있다. 그들은 걸어가면서 연주를 하다가 정</tspan><tspan x="0" y="9471">원 문 앞에 와서 걸음을 멈춘다. 그들은 복숭아꽃이 만발한 나무 밑에 서 있</tspan><tspan x="0" y="9536">다. </tspan><tspan class="cls-4" y="9536">나의 우울증은 그런 풍경 앞에서 눈녹듯 사라지는 것만 같다.</tspan><tspan y="9536" xml:space="preserve"> 그 두 사람</tspan><tspan x="0" y="9601">의 젊은 악사는 마치 위안의 천사들 같다. 그러나 그들은 그걸 느끼지 못한</tspan><tspan x="0" y="9666">다. 그들은 오로지 돈을 벌기 위해 연주를 할 뿐이다. 나는 그들에게 잔돈을 </tspan><tspan x="0" y="9731">몽땅 털어주었다. 그 소리를 언제까지나 듣고 있었으면 했지만 길모퉁이를 </tspan><tspan x="0" y="9796" xml:space="preserve">돌아서 그들은 내가  준 돈을 셈하며 이내 멀리 사라져간다. 나는 잠시 사람</tspan><tspan x="0" y="9861">의 마음을 달래주는 그 음악소리에 귀를 기울이면서 서 있었다. </tspan><tspan class="cls-4" y="9861">어쩌면 우리</tspan><tspan class="cls-4" x="0" y="9926">는 자연의 변화가 명백히 알려주는 그 단순한 진리를 모르고 사는 것같다. </tspan><tspan class="cls-4" x="0" y="9991">아니 외면하고 있는 것 같다. 그래서 자기 자신을 언젠가 떨어져야 할 잎새</tspan><tspan class="cls-4" x="0" y="10056">로 인정하지 않고, 영원히 푸른 나무에 붙어 있으려는 오만함으로 물들이고 </tspan><tspan class="cls-4" x="0" y="10121">있다.</tspan><tspan y="10121" xml:space="preserve"> 구소련의 농민시인 세르게이 예세닌은 이렇게 노래한다. &quot;나는 한 그</tspan><tspan x="0" y="10186">루의 단풍나무 같아요. 흩뿌려진 단풍잎이 아니라 힘을 다해 초록빛으로 남</tspan><tspan x="0" y="10251">으려는.&quot; 그런 것들을 조합하지 않았던 까닭은, </tspan><tspan class="cls-4" y="10251">아무도 그런 조합이 큰 힘을 </tspan><tspan class="cls-4" x="0" y="10316">발휘하리라고 생각하지 못했기 때문이다.</tspan><tspan y="10316" xml:space="preserve"> 자세히 분석해 보면, 상상력이란 </tspan><tspan x="0" y="10381">윤 좋은 소수에게만 주어진 희귀한 재능이 아니다. 우리 모두가 상상력을 조</tspan><tspan x="0" y="10446">합해 훌륭한 경과물을 만들 수 있는 능력을 소유하고 있다. 특히 우리 주변</tspan><tspan x="0" y="10511">을 돌아보고 관찰해 보면 더더욱 그렇다. 많이 보면 볼수록 그만큼 더 많이 </tspan><tspan x="0" y="10576">조합할 수 있다. 하는 일이 너무 편하고 친근하고 진부하게 느껴진다면 이미 </tspan><tspan x="0" y="10641">보고 배우고 성장하기를 멈춘 것이다. 누군가 &quot;세상의 모든 말과 행동 가운</tspan><tspan x="0" y="10706">데 행동보다는 말이 더 많다.&quot;라고 쓴 적이 있다. 쉬지 않고 출간되는 경영 </tspan><tspan x="0" y="10771">지침서에는 온갖 낙관주의와 &quot;이 책에 씌어 있는 대로 따르기만 하면 경이란 </tspan><tspan x="0" y="10836">정말 쉬운 것이다.&quot;라는 은밀한 메세지가 담겨 있다. 하지만 그렇지 않다. 조</tspan><tspan x="0" y="10901">직발달 전문가이자 산타바바라의 캘리포니아대 교수님 존 래머스는 </tspan><tspan class="cls-4" y="10901">『보이</tspan><tspan class="cls-4" x="0" y="10966">지 않는 것을 팔아라』</tspan><tspan y="10966">의 속편으로 </tspan><tspan class="cls-4" y="10966">「보이지 않는 것을 경영하라」</tspan><tspan y="10966">라는 제</tspan><tspan x="0" y="11031">목을 제안하면서 이렇게 말했다. &quot;모두들 내가 어떻게 사람들을 설득해 당신</tspan><tspan x="0" y="11096">의 제안이나 다른 사람의 충고를 따르도록 설득할 수 있는지 알고 싶어합니</tspan><tspan x="0" y="11161">다.&quot; 이론 상으로는 물 샐 틈 없는 논리 같지만, 현실에서는 물이 너무 쉽게 </tspan><tspan x="0" y="11226">샌다. 왕이나 사제가 감독하지 않는 완전 자유시장에서 탐욕스러운 자본가</tspan><tspan x="0" y="11291">들은 </tspan><tspan class="cls-4" y="11291">독점</tspan><tspan y="11291">을 할 수도 있고, 노동자를 탄압하기로 </tspan><tspan class="cls-4" y="11291">서로 공모</tspan><tspan y="11291">할 수도 있다. 만</tspan><tspan x="0" y="11356">일 국내의 모든 구두 공장을 통제하는 단 하나의 회사가 있거나 모든 공장주</tspan><tspan x="0" y="11421">가 임금을 동시에 삭감하기로 짬짜미 한다면 어떻게 될까? 노동자들은 더 </tspan><tspan x="0" y="11486">이상 일터를 바꿈으로써 스스로를 보호할 수 없을 것이다. 사태는 이보다 더 </tspan><tspan x="0" y="11551">나쁠 수 있다. </tspan><tspan class="cls-4" y="11551">탐욕스러운 사장들은 노동자들의 이동의 자유를 제한할 수도 </tspan><tspan class="cls-4" x="0" y="11616">있다.</tspan><tspan y="11616" xml:space="preserve"> 빚을 갚기 위한 노역이나 노예제도를 통해서 말이다. 중세 말 유럽의 </tspan><tspan x="0" y="11681">가톨릭 지역에는 노예제도가 거의 없었다. 한편 </tspan><tspan class="cls-4" y="11681">근대 초기 유럽 자본주의의 </tspan><tspan class="cls-4" x="0" y="11746">부흥은 대서양 노예무역의 부흥과 함께 등장했다.</tspan><tspan y="11746" xml:space="preserve"> 이런 재앙의 책임은 독재</tspan><tspan x="0" y="11811">적인 왕이나 인종차별 이데올로기가 아니라 고삐 풀린 시장의 힘에 있었다. </tspan><tspan x="0" y="11876">&quot;너희가 믿을 때에 성령을 받았느냐?&quot; 이때 &quot;아니라 우리는 성령이 있음도 </tspan><tspan x="0" y="11941">듣지 못하였노라&quot; 이어 바울이 두 번째 질문을 합니다. &quot;너희가 무슨 세례를 </tspan><tspan x="0" y="12006">받았느냐&quot; &apos;</tspan><tspan class="cls-4" y="12006">요한의 세례로라</tspan><tspan y="12006">&quot;고 대답합니다. (행19:3) 이처럼 그들은 지금까</tspan><tspan x="0" y="12071">지 요한의 세례만 받고 살았습니다. 이에 </tspan><tspan class="cls-4" y="12071">바울</tspan><tspan y="12071">이 그들에게 예수님의 이름으</tspan><tspan x="0" y="12136">로 세계를 주고 안수하니, 성령이 그들에게 임하시므로 </tspan><tspan class="cls-4" y="12136">방언도 하고 예언</tspan><tspan y="12136">도 </tspan><tspan x="0" y="12201">하였는데, 모두 </tspan><tspan class="cls-4" y="12201">열두 사람</tspan><tspan y="12201">쯤 되었다고 본문5절~6절에 말씀합니다. 즉 성령</tspan><tspan x="0" y="12266">의 세례를 받은 것입니다. 여기서 우리에게 주는 깨우침은 무엇인가요? 게</tspan><tspan x="0" y="12331">는 아무런 상관이 없는 말입니다. 믿는 성도들 중에도 예수님을 믿노라 하면</tspan><tspan x="0" y="12396">서 성령도 받지 못하고 자기 혼자만 거룩한 것처럼 신앙 생활하는 사람이 많</tspan><tspan x="0" y="12461">기에 그들을 종용하는 말씀인 것입니다. 기독교는 이론과 지식의 종교가 아</tspan><tspan x="0" y="12526">닙니다. </tspan><tspan class="cls-4" y="12526">영적인 체험의 종교</tspan><tspan y="12526">입니다. </tspan><tspan class="cls-4" y="12526">성령의 충만함</tspan><tspan y="12526">을 받아야 확실한 믿음이 </tspan><tspan x="0" y="12591" xml:space="preserve">생깁니다. 또한 확신하는 믿음이 있을 때  성령의 체험이 오는 것입니다. 음</tspan><tspan x="0" y="12656">식도 먹어봐야 그 맛을 알듯이, 교회를 다녀도 성령체험을 하고 다녀야 예수</tspan><tspan x="0" y="12721">님의 살아계심과 능력을 확실히 알게 되는 것입니다. Ⅰ. 사도 바울의 질문</tspan><tspan x="0" y="12786">을 통해 교훈을 받읍시다. &quot;가로되 너희가 믿을 때에 성령을 받았느냐 가로</tspan><tspan x="0" y="12851">되 아니라 우리는 성령이 있음도 듣지 못하였노라(행19:2)&quot; 이 말씀은 바울</tspan><tspan x="0" y="12916">이 </tspan><tspan class="cls-4" y="12916">에베소</tspan><tspan y="12916" xml:space="preserve"> 성도들에게 질문한 말씀입니다. 절기를 통한 은혜(절기 설교) 차</tspan><tspan x="0" y="12981">례 제1부 작가와 이야기라는 예술 서론•9 제1장 이야기의 문제점들•21 </tspan><tspan class="cls-4" x="0" y="13046">제2부 이야기의 구성 요소 제2장 구조의 스펙트럼•55 제3장 구조와 설정</tspan><tspan class="cls-4" x="0" y="13111">•107 제4장 구조와장르•125 제5장 구조와 등장 인물의 성격•156 제6장 </tspan><tspan class="cls-4" x="0" y="13176">구조와 의미•171</tspan><tspan y="13176" xml:space="preserve"> 제3부 이야기 구성의 원칙들 파스칼은 언젠가 친구에게 </tspan><tspan x="0" y="13241">한정없이 이 긴 편지를 한 통 쓰고 난 후 추신에 짧은 편지를 쓸 만한 시간이 </tspan><tspan x="0" y="13306">없었노라고 사과하는 글을 덧붙인 적이 있다. 파스칼이 그랬던 것처럼 </tspan><tspan class="cls-4" y="13306">시나</tspan><tspan class="cls-4" x="0" y="13371">리오 작가들은 가장 중요한 것은 경제성이며 간결함이야말로 시간을 요하는 </tspan><tspan class="cls-4" x="0" y="13436">것이고 뛰어남이란 곧 참을성을 의미한다는 사실을 배운다.</tspan><tspan class="cls-3" y="13436"> </tspan><tspan y="13436">이 책은 창작의 </tspan><tspan x="0" y="13501">신비성이 아니라 현실성에 관한 것이다 예술의 진실에 관한 비밀을 지키기 </tspan><tspan x="0" y="13566">위해 어떤 식의 책략이 있어 본 적은 없다. 촬영장에서 일하는 모든 스텝이 </tspan><tspan x="0" y="13631">넘치는 에너지로 일할 수 있는 것은 자기가 왜 그 일을 하고 있는지를 알고 </tspan><tspan x="0" y="13696" xml:space="preserve">있었기 때문이었다. 내가 이 일을 왜 하는지, 이  일이 어떤 가치가 있는지를 </tspan><tspan x="0" y="13761">알고 일할 때 마음 속에 놀랄 만한 긍정의 에너지가 채워진다. </tspan><tspan class="cls-4" y="13761">긍정의 에너</tspan><tspan class="cls-4" x="0" y="13826">지는 열정이다.</tspan><tspan y="13826" xml:space="preserve"> &apos;열정이 없었다면 칭기즈칸도 한낱 양치기에 불과했다&apos;라는 </tspan><tspan x="0" y="13891">광고카피처럼 </tspan><tspan class="cls-4" y="13891">열정을 품은 사람은 어떤 어려움도 이겨내고 스스로 비전과 </tspan><tspan class="cls-4" x="0" y="13956">신념을 만들어낸다. 당신은 왜 이 일을 하는가 생각해 보자.</tspan><tspan y="13956" xml:space="preserve"> 왜 어린 아이들</tspan><tspan x="0" y="14021">의 교사가 되었는가. 단순히 대학에서 전공을 했기 때문에 혹은 안정적인 직</tspan><tspan x="0" y="14086">업이라고 해서 선택한 것은 아니기를 바란다. 어떤 겨위로 사가 되었든지 </tspan><tspan class="cls-4" y="14086">이</tspan><tspan class="cls-4" x="0" y="14151">제 교사가 되었기 때문에 스스로 가치를 발견해야 한다. 그래서 어느 순간 </tspan><tspan class="cls-4" x="0" y="14216">이 일을 왜 하는지 스스로에게 물어보고 자기만의 답에 도달해야 한다.</tspan><tspan y="14216" xml:space="preserve"> 두세 </tspan></text>
  </g>
</svg>
